{
	"asset":{
		"version":"2.0",
		"generator":""
	},
	"scenes":[{
		"nodes":[0]
	}],
	"nodes":[{
		"name":"Extrude",
		"mesh":0
	}],
	"meshes":[{
		"name":"Extrude",
		"primitives":[{
			"attributes":{
				"POSITION":1
			},
			"indices":0
		}]
	}],
	"accessors":[{
		"bufferView":0,
		"type":"SCALAR",
		"componentType":5123,
		"count":15138,
		"byteOffset":0,
		"min":[0],
		"max":[2530]
	},
	{
		"bufferView":1,
		"type":"VEC3",
		"componentType":5126,
		"count":2531,
		"byteOffset":0,
		"min":[-135.45582580566407,
		-135.45582580566407,
		0.0027777801733464004],
		"max":[135.45582580566407,
		135.45582580566407,
		19.506057739257814]
	}],
	"bufferViews":[{
		"buffer":0,
		"byteOffset":0,
		"byteLength":30276,
		"target":34963
	},
	{
		"buffer":0,
		"byteOffset":30276,
		"byteLength":30372,
		"target":34962
	}],
	"buffers":[{
		"uri":"data:application/octet-stream;base64,",
		"byteLength":60648
	}]
}